# xmcd CD database file
#
# Track frame offsets:
#	150
#	11459
#	22856
#	34326
#	45543
#	56895
#	68414
#	80201
#	90938
#	101665
#	113272
#	120120
#	131815
#	144823
#	155917
#	168934
#	177941
#	184438
#	193856
#	204836
#
# Disc length: 2865 seconds
#
# Revision: 0
# Processed by: cddbd v1.5.2PL0 Copyright (c) Steve Scherf et al.
# Submitted via: CDex 1.70beta2
#
DISCID=010b2f14
DTITLE=Patsy Cline - The Essential Collection
DYEAR=2007
DGENRE=Country
TTITLE0=Walkin' After Midnight
TTITLE1=Crazy Dreams
TTITLE2=Let The Teardrops Fall
TTITLE3=Just Out Of Reach
TTITLE4=The Heart You Break
TTITLE5=In Case Of The Blues
TTITLE6=If I Could Only Stay Asleep
TTITLE7=I Cried All The Way To The Altar
TTITLE8=Honky Tonk Merry Go Round
TTITLE9=Cry Not For Me
TTITLE10=Down By The Riverside
TTITLE11=Just A Closer Walk With Thee
TTITLE12=Eyes Of A Child
TTITLE13=Hungry For Love
TTITLE14=Life's Railway To Heaven
TTITLE15=I Love You Honey
TTITLE16=The Man Upstairs
TTITLE17=Love Me Honey
TTITLE18=Stop The World
TTITLE19=Walkin' Dream
EXTD=YEAR: 2007
EXTT0=
EXTT1=
EXTT2=
EXTT3=
EXTT4=
EXTT5=
EXTT6=
EXTT7=
EXTT8=
EXTT9=
EXTT10=
EXTT11=
EXTT12=
EXTT13=
EXTT14=
EXTT15=
EXTT16=
EXTT17=
EXTT18=
EXTT19=
PLAYORDER=
